<svg viewBox="0 0 1280 640" width="1280" height="640" xmlns="http://www.w3.org/2000/svg" role="img" font-family="'Helvetica Neue', Arial, sans-serif">
  <title>Hau OTC Desk — cover banner</title>
  <rect width="1280" height="640" fill="#111113"/>
  <rect x="40" y="40" width="1200" height="560" rx="10" fill="none" stroke="#26262A"/>

  <!-- monogram card -->
  <rect x="878" y="188" width="264" height="264" rx="58" fill="#17171A" stroke="#2A2A2E"/>
  <g transform="translate(922,232) scale(1.76)">
    <rect x="18" y="20" width="12" height="60" rx="3" fill="#F7F6F2"/>
    <rect x="70" y="20" width="12" height="60" rx="3" fill="#F7F6F2"/>
    <rect x="31" y="41" width="28" height="7" rx="2" fill="#D2683B"/>
    <polygon points="58,36 58,53 72,44.5" fill="#D2683B"/>
    <rect x="41" y="53" width="28" height="7" rx="2" fill="#D2683B"/>
    <polygon points="42,48 42,65 28,56.5" fill="#D2683B"/>
  </g>

  <circle cx="96" cy="169" r="4" fill="#D2683B"/>
  <text x="112" y="174" font-size="15" font-weight="600" letter-spacing="0.24em" fill="#9A9A93">UNICITY AGENTSPHERE · TESTNET2</text>

  <text x="92" y="290" font-size="90" font-weight="700" letter-spacing="0.01em" fill="#F7F6F2">HAU OTC DESK</text>
  <rect x="96" y="322" width="88" height="6" rx="3" fill="#D2683B"/>

  <text x="94" y="384" font-size="30" font-weight="500" fill="#D4D4CF">Autonomous OTC market-maker — private RFQ,</text>
  <text x="94" y="424" font-size="30" font-weight="500" fill="#D4D4CF">atomic escrow settlement.</text>

  <text x="94" y="486" font-size="18" letter-spacing="0.06em" fill="#8A8A85">RFQ&#160;&#160;→&#160;&#160;firm quote&#160;&#160;→&#160;&#160;accept&#160;&#160;→&#160;&#160;atomic settlement</text>

  <text x="94" y="544" font-size="15" letter-spacing="0.11em" fill="#6E6E68">DETERMINISTIC PRICING&#160;&#160;·&#160;&#160;RISK STACK&#160;&#160;·&#160;&#160;HASH-CHAINED AUDIT&#160;&#160;·&#160;&#160;LIVE ON-CHAIN</text>
</svg>
